<?xml version="1.0" encoding="utf-8"?>
<!-- Generator: Adobe Illustrator 26.0.2, SVG Export Plug-In . SVG Version: 6.00 Build 0)  -->
<svg version="1.1" id="Layer_1" xmlns="http://www.w3.org/2000/svg" xmlns:xlink="http://www.w3.org/1999/xlink" x="0px" y="0px"
	 viewBox="0 0 116.07 116.07" style="enable-background:new 0 0 116.07 116.07;" xml:space="preserve">
<style type="text/css">
	.st0{fill:#08C38F;}
</style>
<g>
	<path class="st0" d="M45.18,45.7c-0.04,2.8-0.08,6.51-0.1,11.14c-0.02,4.59-0.04,8.27-0.05,11.03c2.16,0,4.97,0.02,8.44,0.04
		c4.62,0.03,8.09,0.04,10.43,0.04h4.97c0.15-5.43,0.27-12.88,0.38-22.35c-3,0.01-7,0.02-12,0.04C52.21,45.68,48.18,45.69,45.18,45.7
		z"/>
	<path class="st0" d="M58.04,1.59c-31.18,0-56.45,25.27-56.45,56.45s25.27,56.45,56.45,56.45s56.45-25.27,56.45-56.45
		S89.21,1.59,58.04,1.59z M92.55,43.51c-0.84,1.59-2.35,2.46-4.26,2.46c-2.23-0.21-5.3-0.33-9.26-0.35
		c-0.11,9.55-0.23,17.06-0.38,22.52h7.74c1.3,0,2.47,0.5,3.38,1.46c0.85,0.9,1.32,1.97,1.42,3.2c0.1,1.34-0.37,2.58-1.36,3.57
		c-0.96,0.96-2.14,1.46-3.43,1.46h-8.06c-0.18,4.17-0.46,9.89-0.82,17.17c-0.09,1.33-0.57,2.44-1.42,3.34
		c-0.87,0.91-2.02,1.45-3.33,1.54c-0.1,0.01-0.22,0.01-0.33,0.01c-0.93,0-2.17-0.3-3.29-1.54c-0.95-1.05-1.4-2.29-1.3-3.6
		c0.41-7.44,0.68-13.1,0.83-16.95c-10.14-0.14-18.07-0.22-23.82-0.24c-0.01,1.36-0.02,3.03-0.04,5.02
		c-0.03,3.05-0.04,5.35-0.04,6.91v2.25c0,0.89-0.03,1.74-0.1,2.54c-0.09,1.17-0.52,2.2-1.29,3.06c-0.59,0.66-1.7,1.46-3.6,1.46
		c-2.14-0.12-3.25-1.13-3.82-1.95c-0.71-1.01-1.07-2.11-1.07-3.26c0-0.79,0.04-1.8,0.14-3.03c0.07-0.99,0.1-1.68,0.05-2.09
		c-0.02-1.62,0-3.7,0.03-6.47c0.02-1.7,0.03-3.15,0.04-4.35c-3.09,0.02-5.5,0.08-7.23,0.17c0,0-0.01,0-0.01,0
		c-1.47,0-2.66-0.5-3.56-1.45c-0.85-0.9-1.33-2.01-1.42-3.3c-0.1-1.35,0.38-2.58,1.4-3.55c0.95-0.9,2.16-1.38,3.48-1.38
		c3.02-0.13,5.49-0.21,7.38-0.25c0.14-9.45,0.22-16.89,0.24-22.32c-0.6,0-1.22,0.02-1.86,0.05c-1.46,0.07-3.04,0-4.67-0.2
		c-1.89-0.22-3.3-0.69-4.3-1.45c-1.1-1.08-1.58-2.25-1.58-3.56c0-1.27,0.45-2.45,1.3-3.4c1.32-1.31,2.92-1.78,4.57-1.39
		c1.4,0.16,3.67,0.27,6.64,0.3V21.55c0-1.36,0.5-2.56,1.45-3.46c0.9-0.85,2.01-1.33,3.3-1.42c0.88-0.06,2.24,0.12,3.51,1.45
		c0.93,0.98,1.43,2.17,1.43,3.44v14.46c3-0.01,7.02-0.02,12.07-0.05c5.04-0.03,9.07-0.04,12.08-0.04
		c-0.02-3.58-0.08-8.51-0.18-14.79c0-1.39,0.5-2.59,1.46-3.49c0.9-0.85,1.97-1.32,3.2-1.42c1.32-0.15,2.61,0.39,3.61,1.44
		c0.93,0.98,1.43,2.17,1.43,3.44c0.1,6.28,0.16,11.23,0.18,14.83c4.08,0.03,7.25,0.15,9.43,0.36c1.77,0.09,3.25,0.99,4.07,2.54
		C93.36,40.36,93.36,41.98,92.55,43.51z"/>
</g>
</svg>
